<?xml version="1.0" encoding="UTF-8"?>
<!DOCTYPE svg  PUBLIC '-//W3C//DTD SVG 1.1//EN'  'http://www.w3.org/Graphics/SVG/1.1/DTD/svg11.dtd'>
<svg width="210mm" height="210mm" clip-rule="evenodd" fill-rule="evenodd" image-rendering="optimizeQuality" shape-rendering="geometricPrecision" text-rendering="geometricPrecision" version="1.1" viewBox="0 0 21000 21000" xml:space="preserve" xmlns="http://www.w3.org/2000/svg">
 <defs>
  <style type="text/css">
   <![CDATA[
    .str0 {stroke:#FECC00;stroke-width:20}
    .fil3 {fill:none}
    .fil1 {fill:#2B2A29}
    .fil0 {fill:#FECC00}
    .fil2 {fill:black}
   ]]>
  </style>
 </defs>
   <rect class="fil0" transform="matrix(1.3102 1.3102 -1.3102 1.3102 10500 -384.86)" width="8308" height="8308" rx="500" ry="500"/>
   <path class="fil1" d="m11066 1466l8468 8468c311 311 310 822 0 1132l-8468 8468c-310 310-821 311-1132 0l-8468-8468c-311-311-311-821 0-1132l8468-8468c311-311 821-311 1132 0zm50-590l9008 9008c339 339 339 893 0 1232l-9008 9008c-339 339-893 339-1232 0l-9008-9008c-339-339-339-893 0-1232l9008-9008c339-339 893-339 1232 0z"/>
   <path class="fil2" d="m8216 8094c-148 279-187 548-228 864-11 86-13 161-30 243-22 102-51 217-95 315-118 263-180 312-28 614 22 45 39 80 62 125 51 100 126 196 202 277 63 68 162 192 236 241-264 394-349 650-349 1178 0 144 39 274 89 397 16 41 29 79 47 115 35 72 72 144 111 213 11 17 128 196 128 196 0 155-290 495-290 845 0 201 95 335 206 485 72 97 203 194 212 206l-83 105c-29 39-53 78-79 117-18 27-183 314-60 324 1 46 11 48 50 50 75 4 7 66 203-44 51-28 93-52 138-84 121-84 234-164 346-261 72-63 146-27 239-41 70-11 147-1 219-4 44-1 52-9 102-9 296 0 343-40 506-46 232-9 934 192 1132 192-20 88-213 384-67 426l25 8c33 18 1 20 51 26 16 2 23-1 40 3 31 7 11 15 28 15 73 0 239-120 296-157 88-59 174-130 248-204l111-111c35-34 77-94 116-115 54-28 94-45 144-77 135-85 252-215 331-352 56-99 103-190 157-296 86-172 209-529 167-728 59-5 507-180 614-214 35-12 65-12 78-42 11-27-31-90-41-113-38-97-126-275-147-365 83-44 657-265 657-290 0-73-191-635-222-768 39-3 61-18 97-31 37-12 59-20 94-33 39-15 560-189 560-209 0-74-50-173-70-245l-189-622c-7-22-13-36-20-57-7-24-11-47-20-66 22-10 101-29 133-37 317-79 631-188 939-290l651-220c111-37 286-92 376-152-11-136-263-649-350-819l-384-786c-24-49-100-184-110-230-55 0-101 27-145 52l-570 318-1891 1222c-116 78-85 55 53 261l790 1190c26 40 121 169 124 208-57 5-565 212-658 246-139 52-120-7 68 464 29 71 54 134 83 207 18 46 77 170 81 210-41 9-443 224-487 247 7 76 214 429 239 538-79 38-277 145-350 162l-51-299c-48-288-133-565-197-853l-66-284c-72-288-124-579-173-876-49-292-103-613-134-915l-34-316c-62-562-75-595-258-1057-8-21-16-48-25-68 129 0 723-197 818-232l368-160c145-73 284-150 418-239 26-18 51-31 78-50 355-238 502-360 786-665 35-38 192-194 161-225-21-21-425 19-487 18-80 0-412 18-482 31-309 56-571 124-848 210-411 128-938 405-1307 664-122 85-29 79-348-46-93-36-181-65-282-93-556-155-1195-125-1733 54l-226 82c-24 11-54 26-82 28-11-41-60-77-87-109-16-17-15-21-30-38-165-184-355-393-543-550-148-124-300-249-458-361l-500-319c-115-69-241-129-365-181-142-59-468-217-603-217-52 0-7 60 3 83l134 276c60 120 136 234 205 349 33 56 73 110 111 163l440 515 4 4c99 95 213 212 320 295l110 95c277 218 355 269 653 448 25 15 64 44 94 51z"/>
    <path class="fil0" d="m10722 8815c-94 22-156 75-190 145-158 327 152 589 402 514 288-87 304-468 71-612-71-44-190-69-283-47z"/>
    <path class="fil0" d="m8554 8781c-324 49-343 645 19 633 172-5 236-159 243-330 7-179-71-332-262-303z"/>
   <path class="fil3 str0" d="m9057 9883c41 40 78 86 125 120 12 8 31 4 44 0 73-25 142-63 214-89 25-8 52-20 76-12 109 36 207 102 315 141 17 7 39 1 56-6 63-24 122-56 183-85"/>
   <path class="fil0" d="m9445 9595c-64-18-92-50-111-85 76-3 151-5 226-8-38 31-77 62-115 93z"/>
</svg>
